<?xml version="1.0" standalone="no"?><!DOCTYPE svg PUBLIC "-//W3C//DTD SVG 1.1//EN" "http://www.w3.org/Graphics/SVG/1.1/DTD/svg11.dtd"><svg t="1779251514432" class="icon" viewBox="0 0 1024 1024" version="1.1" xmlns="http://www.w3.org/2000/svg" p-id="11888" xmlns:xlink="http://www.w3.org/1999/xlink" width="200" height="200"><path d="M415.392 475.808v329.984c-22.304 111.744-170.56 82.944-171.2 1.92-0.672-101.824 0-202.976 0-304.064v-117.184c0-14.656-3.2-26.24-16-35.392-24.96-18.72-54.944 3.264-55.584 30.208-1.408 36.16-0.704 71.616-1.408 107.264 0 28.16 0 55.52 0.64 83.648-18.368 123.776-168.32 103.232-171.808 0.704V487.04c0-28.032 54.944-34.624 52.256 7.36-1.792 20.8-0.64 42.272-1.344 62.912-0.64 36.8 55.648 61.6 68.896 1.408 0.64-49.632 0.64-99.264 0.64-149.344 0-62.752 17.824-113.856 84.352-118.624 28.8-2.56 47.968 9.504 66.336 30.304 7.04 7.36 23.68 30.72 24.32 56.16 0 23.456 0.64 46.752 0.64 70.464 0 46.72-0.64 93.76-0.64 140.48 0 30.304 0.64 60.256 0.64 89.856 0 37.536 0 75.552-0.64 113.152-0.64 48.864 58.816 48.16 68.352-0.768 0-57.632 0.64-114.56 0.64-172.192 0-141.984-0.64-283.968-0.64-425.856 0-14.72-2.048-55.584 5.76-70.464 41.504-101.12 167.392-56.96 168.544 26.72 2.432 171.52 0 344.896 0.64 516.8 0 59.616-48.416 46.816-51.104 23.488 0-178.88 0-358.4 0.64-537.024-2.368-44.832-68.832-38.72-72.672-6.592-1.28 36.864-0.64 74.4-1.28 111.232v219.008h0.64l0.448 0.256h-0.064z" fill="#D4367A" p-id="11889"></path><path d="M610.016 473.184v242.336V143.648c21.632-112.512 169.824-83.264 170.464-2.176 0.704 101.12 0 202.912 0.704 304 0 38.784 0 77.728-0.64 116.544 0 15.36 3.776 26.176 16.64 36.032 24.32 18.24 54.24-3.2 55.584-30.592 1.344-35.488 0.64-70.976 0.64-107.328V376.96c18.56-123.776 168.128-103.232 171.264-0.704v310.592c0 28.16-54.304 34.848-51.872-7.296 1.472-21.44 0-267.104 0.768-288.64 1.28-36.16-55.712-61.664-68.928-0.768v148.576c0 63.68-17.856 113.92-84.96 119.36-63.264 1.504-88.704-42.24-90.752-86.432V271.328c0-38.24 0-75.552 0.64-113.088 0.64-48.864-58.784-48.864-68.896 0.704V831.36c0 14.592 2.048 55.52-5.184 70.432-41.44 101.056-168 56.864-169.152-26.752v-79.616c3.136-53.6 48.416-40.864 50.464-18.176v94.464c2.432 44.928 68.928 39.488 72.064 6.656 1.344-36.896 1.344-73.728 1.344-111.296v-293.824h-0.192v-0.064z" fill="#ED6D48" p-id="11890"></path></svg>